<svg id="Layer_3" data-name="Layer 3" xmlns="http://www.w3.org/2000/svg" viewBox="0 0 250 472.43"><path d="M363.39,295.83l-72.33-26.45c0-6.76,1-13.51-.19-19.92-4.51-23.64-23.9-38.66-52.42-41.75-25.88-2.81-50.06-9.82-71.29-23.47-22.91-14.73-37.61-34.36-40.45-59.21C121,74.51,154,31.07,204.9,19.72,242,11.45,279,10.52,314.5,25.44,339.8,36.09,360,51.51,368.91,76c6.16,16.93,6.51,34.22,3.71,51.62-1.34,8.33-3.33,16.59-5.23,25.86l-73.33-29c-.82-8-1-15.46-2.46-22.72C287.83,82.43,271,71.88,248.51,74.44c-17.36,2-31.41,8.12-37.95,23.65-9.27,22,9.12,48,36,52.09,34.39,5.26,67,14.87,94.33,34.95,19.81,14.56,31.8,32.81,33.8,55.88C376.33,260,371.4,277.71,363.39,295.83Z" transform="translate(-125 -13.79)"/><path d="M136.34,203.85l72.85,26.57c-1.27,11.25-1,22.16,4.17,32.43,8.36,16.64,24,25.32,43.59,28.36,20.33,3.16,40.45,6.47,58.95,15,33.29,15.34,55.3,38.29,58.18,72,3.77,44.21-23.26,90.73-82.66,103-32.69,6.77-65.58,7.72-97.35-3.66-27.22-9.74-49.77-24.47-60.85-49.66-7.68-17.46-8.4-35.59-5.71-53.88,1.31-8.95,3.57-17.79,5.57-27.52l73.54,29.06c.63,7.39.7,14.19,1.85,20.85,4.12,24,23.92,32.74,49.79,28.08,18.49-3.33,30.24-12.83,33.48-29.55,3.75-19.34-12.49-40.52-34.76-44.42-20.78-3.64-41.18-8.22-60.56-15.83-23-9-43.43-20.95-57.19-40s-17.18-40.07-11.79-62C129.76,223.18,133.19,213.93,136.34,203.85Z" transform="translate(-125 -13.79)"/></svg>